<svg xmlns="http://www.w3.org/2000/svg" viewBox="0 0 760 480" role="img">
  <rect width="760" height="480" rx="28" fill="#18110c"/>
  <rect x="44" y="52" width="672" height="376" rx="24" fill="#241810" stroke="#c9a227" stroke-opacity=".45"/>
  <rect x="74" y="82" width="612" height="56" rx="16" fill="#120c08"/>
  <circle cx="106" cy="110" r="18" fill="#c9a227"/>
  <rect x="146" y="99" width="112" height="12" rx="6" fill="#f4ead2"/>
  <rect x="456" y="96" width="76" height="18" rx="9" fill="#806228"/>
  <rect x="548" y="96" width="76" height="18" rx="9" fill="#806228"/>
  <rect x="638" y="94" width="28" height="22" rx="11" fill="#c9a227"/>
  <rect x="86" y="170" width="250" height="190" rx="22" fill="#3a2517"/>
  <rect x="366" y="170" width="134" height="190" rx="22" fill="#120c08"/>
  <rect x="526" y="170" width="134" height="190" rx="22" fill="#120c08"/>
  <circle cx="211" cy="230" r="44" fill="#c9a227"/>
  <rect x="136" y="300" width="150" height="16" rx="8" fill="#f4ead2"/>
  <rect x="136" y="328" width="106" height="12" rx="6" fill="#a8873a"/>
  <rect x="392" y="216" width="82" height="82" rx="18" fill="#6f4628"/>
  <rect x="552" y="216" width="82" height="82" rx="18" fill="#6f4628"/>
  <rect x="390" y="320" width="86" height="12" rx="6" fill="#f4ead2"/>
  <rect x="548" y="320" width="90" height="12" rx="6" fill="#f4ead2"/>
</svg>
